<svg width="80" height="80" viewBox="0 0 80 80" fill="none" xmlns="http://www.w3.org/2000/svg">
<circle cx="40" cy="40" r="40" fill="#FF866B"/>
<path d="M52.5 27.3173V32.5H33C31.8954 32.5 31 33.3954 31 34.5C31 35.6046 31.8954 36.5 33 36.5H36.75C37.7165 36.5 38.5 37.2835 38.5 38.25C38.5 39.2165 37.7165 40 36.75 40H26.75C25.7835 40 25 40.7835 25 41.75C25 42.7165 25.7835 43.5 26.75 43.5H39.75C40.7165 43.5 41.5 44.2835 41.5 45.25C41.5 46.2165 40.7165 47 39.75 47H32.75C31.7835 47 31 47.7835 31 48.75C31 49.7165 31.7835 50.5 32.75 50.5H52.5V55.6827C52.5 56.5595 53.5481 57.0118 54.186 56.4103L69.2283 42.2276C69.647 41.8329 69.647 41.1671 69.2283 40.7724L54.186 26.5897C53.5481 25.9882 52.5 26.4405 52.5 27.3173Z" stroke="white" stroke-width="2"/>
<rect x="16" y="32" width="10" height="4" rx="2" stroke="white" stroke-width="2"/>
<rect x="16" y="47" width="10" height="4" rx="2" stroke="white" stroke-width="2"/>
</svg>
