<svg width="50" height="45" viewBox="0 0 50 45" fill="none" xmlns="http://www.w3.org/2000/svg">
<path d="M26.9332 45C26.6692 45 26.4002 44.9949 26.1263 44.9796C23.2623 44.8467 20.0546 44.014 16.5978 42.5018C12.892 40.8823 9.89851 39.8349 7.70691 39.3854C6.15785 39.0686 5.52528 39.1708 5.39577 39.1963C4.86282 39.4722 4.20036 39.324 3.83177 38.8183C3.42334 38.2512 3.5379 37.4542 4.09078 37.0302C4.95247 36.3711 7.85634 35.9011 17.5741 40.1517C23.3519 42.6755 28.1087 43.125 31.7149 41.48C33.2639 40.775 34.554 39.7021 35.5601 38.2869C35.7643 38.0009 35.9337 37.7301 36.0731 37.4849L24.4477 33.5153C23.6956 33.2752 22.9285 33.0146 22.1465 32.7285C21.504 32.4935 21.1653 31.7731 21.3894 31.109C21.6136 30.4448 22.3109 30.0923 22.9584 30.312L25.2247 31.0886C28.7662 32.2125 31.9091 32.7694 34.5988 32.754C37.1341 32.7387 39.2659 32.2125 40.9245 31.1856C42.2345 30.3784 43.2407 29.2749 43.9131 27.9057C44.0177 27.6912 44.1073 27.4868 44.182 27.2978L32.5765 25.8213C31.9041 25.7345 31.421 25.1112 31.4907 24.4215C31.5604 23.7318 32.1581 23.2209 32.8356 23.2822C37.8563 23.7165 41.6368 22.5005 44.0725 19.6702C47.6537 15.5014 47.7185 8.72193 47.3798 4.74723C46.9066 5.22236 46.3189 5.73835 45.5966 6.27989C43.7089 7.68994 41.1985 9.0489 38.1352 10.3159C34.3647 11.8792 29.7275 13.3148 24.3481 14.5869C2.28769 19.798 2.48693 31.3542 2.49191 31.4717C2.52179 32.1767 1.98386 32.7694 1.29649 32.8C0.609128 32.8307 0.0313439 32.2789 0.0014585 31.5739C-0.0035224 31.4257 -0.108121 27.9057 2.9103 23.7369C4.62871 21.3613 7.02453 19.2309 10.023 17.407C13.7089 15.1693 18.3362 13.3812 23.7753 12.0938C35.057 9.42185 40.7701 6.54555 43.5744 4.59908C46.4733 2.59129 46.9116 1.17103 46.9415 1.05863C47.0411 0.47111 47.5292 0.0266389 48.117 0.00109459C48.7246 -0.0244498 49.2626 0.399586 49.3871 1.01265C49.417 1.14548 50.0645 4.33341 49.9948 8.40007C49.9499 10.8115 49.661 13.0338 49.1331 15.0109C48.4557 17.5398 47.3798 19.6753 45.9403 21.3511C44.8196 22.6589 43.4797 23.6858 41.9406 24.4317L45.9353 24.9375C46.2641 24.9783 46.5629 25.1521 46.7671 25.4228C46.9713 25.6936 47.061 26.0359 47.0162 26.3731C46.9913 26.5519 46.4135 30.7309 42.2744 33.3262C40.8 34.2509 39.0567 34.8538 37.0743 35.1297L38.2099 35.5179C38.5237 35.6252 38.7827 35.8551 38.9322 36.1566C39.0816 36.458 39.1065 36.8105 39.0019 37.1323C38.9421 37.3163 37.4977 41.6179 32.7957 43.7892C31.0424 44.5964 29.08 45 26.9332 45Z" fill="white"/>
</svg>
