<svg width="60" height="38" viewBox="0 0 60 38" fill="none" xmlns="http://www.w3.org/2000/svg">
<path d="M48.7805 38H8.87787L8.72064 37.9665C6.28919 37.4193 4.06551 35.9956 2.47075 33.9577C0.875994 31.9254 0 29.4017 0 26.8501C0 20.7029 5.03135 15.7003 11.2139 15.7003C11.5395 15.7003 11.8708 15.717 12.1965 15.7449C12.8198 13.7182 14.0215 11.8924 15.6668 10.5022C17.6883 8.79371 20.2658 7.85013 22.9219 7.85013C23.7585 7.85013 24.5784 7.93947 25.3814 8.11813C27.285 3.27182 32.0187 0 37.3477 0C40.7787 0 44.0075 1.32883 46.4333 3.74082C48.8591 6.15281 50.1956 9.36321 50.1956 12.7746C50.1956 13.7852 50.0777 14.779 49.8475 15.7505C55.5358 16.2865 60 21.0602 60 26.8501C59.9944 32.9974 54.9687 38 48.7805 38ZM9.20356 35.186H48.7805C53.402 35.186 57.1642 31.4452 57.1642 26.8501C57.1642 22.2551 53.402 18.5143 48.7805 18.5143C48.5447 18.5143 48.2976 18.5254 48.0281 18.5478L45.6977 18.7543L46.5962 16.6048C47.1072 15.3876 47.3655 14.1034 47.3655 12.7746C47.3655 7.28063 42.8732 2.81399 37.3477 2.81399C32.8105 2.81399 28.8292 5.85689 27.6668 10.2119L27.2681 11.7026L25.8138 11.1722C24.8872 10.8372 23.9158 10.6641 22.9219 10.6641C18.8339 10.6641 15.3636 13.5674 14.6617 17.5651L14.409 19.0056L12.9715 18.6985C12.3931 18.5757 11.7978 18.5143 11.2139 18.5143C6.59242 18.5143 2.83014 22.2551 2.83014 26.8501C2.83014 30.7305 5.5592 34.2871 9.20356 35.186Z" fill="white"/>
</svg>
