<svg width="166" height="41" viewBox="0 0 166 41" fill="none" xmlns="http://www.w3.org/2000/svg">
<g clip-path="url(#clip0)">
<path d="M0 26.9434H31.375V33.6154H6.72201L0 26.9434Z" fill="#113464"/>
<path d="M31.375 0H0V6.57019H31.375V0Z" fill="#113464"/>
<path d="M27.1065 13.4629H13.3264V20.0331H27.1065V13.4629Z" fill="#113464"/>
<path d="M7.10852 0H0V26.9429L7.10852 19.6257V0Z" fill="#113464"/>
<path d="M59.5423 17.1173V15.1638H47.29V8.28538H60.3711V6.31543H44.8525V26.6716H60.891V24.7016H47.29V17.1173H59.5423Z" fill="#113464"/>
<path d="M71.5996 22.0754L74.817 26.672H77.547L71.762 18.9235L77.1082 12.0615H74.4758L71.8433 15.5418C71.4696 16.0178 71.0633 16.576 70.6246 17.1998L70.4133 17.4953L70.2183 17.1834C69.9421 16.7402 69.5683 16.1656 69.1133 15.4925L66.7246 12.0615H63.9459L69.1783 19.0713L63.5072 26.672H66.1884L70.5271 20.5323L71.5996 22.0754Z" fill="#113464"/>
<path d="M85.0545 24.9647C84.5995 24.9647 84.2582 24.899 83.9982 24.7513C83.7382 24.6035 83.5432 24.3901 83.4295 24.1439C83.3645 23.9961 83.267 23.6678 83.267 22.6336V13.5554H85.997V12.0615H83.267V6.95605L81.057 8.22011V12.0615H79.0583V13.5554H81.057V22.4858C81.057 23.9797 81.1545 24.9647 81.3658 25.4079C81.5608 25.8347 81.9183 26.1795 82.4058 26.4586C82.9095 26.7376 83.6407 26.869 84.5832 26.869C85.1032 26.869 85.7045 26.8033 86.3545 26.6884L86.0457 24.899C85.6395 24.9483 85.3145 24.9647 85.0545 24.9647Z" fill="#113464"/>
<path d="M92.9194 14.4247C93.4394 14.0635 94.0243 13.883 94.6581 13.883C95.2756 13.883 95.9093 14.0307 96.5268 14.3426L97.2905 12.4219C96.4455 11.9623 95.6168 11.7324 94.8043 11.7324C94.2193 11.7324 93.6831 11.8966 93.1956 12.2085C92.7081 12.5204 92.1394 13.2099 91.5381 14.2441L91.0832 15.0157V12.0607H89.1169V26.6712H91.3431V19.0048C91.3431 17.9049 91.5056 16.8707 91.8144 15.935C92.0256 15.2948 92.3994 14.7858 92.9194 14.4247Z" fill="#113464"/>
<path d="M112.679 22.5842L110.339 22.3051C109.917 23.3393 109.348 24.1109 108.649 24.6034C107.902 25.1287 107.008 25.3914 105.952 25.3914C104.554 25.3914 103.368 24.9153 102.425 23.996C101.483 23.0767 100.963 21.7305 100.849 20.0232L100.833 19.7606H112.825C112.825 19.58 112.825 19.4323 112.825 19.3173C112.825 16.9041 112.159 15.0163 110.859 13.6866C109.559 12.3733 107.837 11.7002 105.773 11.7002C103.628 11.7002 101.873 12.3897 100.54 13.7358C99.208 15.0819 98.5255 17.0191 98.5255 19.4815C98.5255 21.8619 99.1917 23.7169 100.508 25.0302C101.824 26.3435 103.644 27.0001 105.919 27.0001C107.723 27.0001 109.218 26.5897 110.372 25.7689C111.46 25.0138 112.24 23.9467 112.679 22.5842ZM101.012 17.8891C101.109 16.5102 101.613 15.3939 102.507 14.573C103.4 13.7522 104.522 13.3254 105.822 13.3254C107.268 13.3254 108.454 13.8507 109.38 14.8849C109.982 15.558 110.339 16.5594 110.469 17.8891L110.502 18.1518H101.012V17.8891Z" fill="#113464"/>
<path d="M132.585 13.4403C133.251 13.4403 133.836 13.5881 134.34 13.8836C134.844 14.1791 135.201 14.5895 135.396 15.0984C135.591 15.5908 135.672 16.3296 135.672 17.3966V26.6718H137.882V16.543C137.882 14.9014 137.476 13.6701 136.68 12.8822C135.867 12.0942 134.697 11.7002 133.17 11.7002C131.204 11.7002 129.644 12.5374 128.409 14.2447L128.149 14.6059L127.986 14.1791C127.694 13.4075 127.19 12.7837 126.475 12.3568C125.76 11.9136 124.818 11.7002 123.68 11.7002C122.656 11.7002 121.73 11.9136 120.934 12.3404C120.138 12.7673 119.488 13.3418 119.016 14.0477L118.578 14.7044V12.0614H116.628V26.6718H118.854V19.0875C118.854 17.6921 119 16.5922 119.309 15.8371C119.618 15.0655 120.138 14.4581 120.82 14.0477C121.503 13.6537 122.266 13.4403 123.063 13.4403C124.151 13.4403 124.948 13.7522 125.435 14.3925C125.906 14.9999 126.15 15.9192 126.15 17.1011V26.6718H128.376V18.1354C128.376 16.5102 128.782 15.3118 129.579 14.5566C130.407 13.8179 131.399 13.4403 132.585 13.4403Z" fill="#113464"/>
<path d="M155.66 22.5842L153.32 22.3051C152.897 23.3393 152.328 24.1109 151.63 24.6034C150.882 25.1287 149.988 25.3914 148.932 25.3914C147.535 25.3914 146.348 24.9153 145.406 23.996C144.463 23.0767 143.943 21.7305 143.83 20.0232L143.814 19.7606H155.806C155.806 19.58 155.806 19.4323 155.806 19.3173C155.806 16.9041 155.14 15.0163 153.84 13.6866C152.54 12.3733 150.817 11.7002 148.753 11.7002C146.608 11.7002 144.853 12.3897 143.521 13.7358C142.189 15.0819 141.506 17.0191 141.506 19.4815C141.506 21.8619 142.172 23.7169 143.489 25.0302C144.805 26.3435 146.625 27.0001 148.9 27.0001C150.703 27.0001 152.198 26.5897 153.352 25.7689C154.441 25.0138 155.205 23.9467 155.66 22.5842ZM143.992 17.8891C144.09 16.5102 144.593 15.3939 145.487 14.573C146.381 13.7522 147.502 13.3254 148.802 13.3254C150.248 13.3254 151.435 13.8507 152.361 14.8849C152.962 15.558 153.32 16.5594 153.45 17.8891L153.482 18.1518H143.992V17.8891Z" fill="#113464"/>
<path d="M104.225 40.8468V33.8012H105.283V34.8029C105.788 34.0219 106.527 33.6484 107.502 33.6484C107.922 33.6484 108.308 33.7163 108.661 33.8691C109.014 34.0219 109.283 34.2257 109.451 34.4633C109.619 34.718 109.754 35.0066 109.821 35.3462C109.871 35.5669 109.888 35.9573 109.888 36.5006V40.8298H108.712V36.5515C108.712 36.0592 108.661 35.7027 108.577 35.465C108.493 35.2273 108.325 35.0236 108.09 34.8878C107.855 34.752 107.586 34.6671 107.266 34.6671C106.762 34.6671 106.325 34.8368 105.956 35.1594C105.586 35.482 105.401 36.0932 105.401 36.9929V40.8468H104.225Z" fill="#113464"/>
<path d="M116.946 38.5722L118.173 38.725C117.988 39.438 117.618 39.9983 117.097 40.4057C116.576 40.7962 115.904 41 115.098 41C114.072 41 113.266 40.6774 112.678 40.0492C112.073 39.4211 111.787 38.5213 111.787 37.3838C111.787 36.1954 112.089 35.2786 112.694 34.6165C113.299 33.9544 114.089 33.6318 115.047 33.6318C115.971 33.6318 116.744 33.9544 117.333 34.5995C117.921 35.2447 118.223 36.1445 118.223 37.2989C118.223 37.3668 118.223 37.4687 118.223 37.6215H113.031C113.081 38.4024 113.283 38.9797 113.686 39.4041C114.072 39.8115 114.56 40.0153 115.148 40.0153C115.585 40.0153 115.955 39.8964 116.257 39.6757C116.526 39.455 116.761 39.0815 116.946 38.5722ZM113.064 36.6538H116.963C116.913 36.0596 116.761 35.6182 116.509 35.3126C116.139 34.8542 115.652 34.6165 115.047 34.6165C114.509 34.6165 114.056 34.8033 113.686 35.1598C113.299 35.5503 113.098 36.0256 113.064 36.6538Z" fill="#113464"/>
<path d="M122.693 39.7779L122.862 40.8305C122.525 40.8984 122.223 40.9324 121.971 40.9324C121.534 40.9324 121.215 40.8644 120.979 40.7286C120.744 40.5928 120.576 40.4061 120.475 40.1854C120.374 39.9647 120.324 39.4893 120.324 38.7762V34.7187H119.45V33.7849H120.324V32.0363L121.5 31.3232V33.7849H122.693V34.7187H121.5V38.8442C121.5 39.1837 121.517 39.4044 121.568 39.5063C121.601 39.6081 121.685 39.676 121.769 39.744C121.87 39.7949 122.004 39.8288 122.172 39.8288C122.307 39.8288 122.475 39.8119 122.693 39.7779Z" fill="#113464"/>
<path d="M125.618 40.8467L123.483 33.8012H124.71L125.819 37.8587L126.239 39.3697C126.256 39.3018 126.374 38.8094 126.592 37.9096L127.701 33.7842H128.911L129.953 37.8757L130.306 39.2169L130.709 37.8587L131.903 33.7842H133.045L130.861 40.8297H129.634L128.525 36.6194L128.256 35.414L126.844 40.8297H125.618V40.8467Z" fill="#113464"/>
<path d="M134.07 37.3159C134.07 36.0086 134.423 35.0409 135.146 34.4128C135.751 33.8865 136.474 33.6318 137.331 33.6318C138.289 33.6318 139.078 33.9544 139.683 34.5826C140.288 35.2107 140.591 36.0935 140.591 37.214C140.591 38.1138 140.456 38.8269 140.187 39.3532C139.919 39.8795 139.532 40.2699 139.011 40.5585C138.49 40.8472 137.936 40.983 137.331 40.983C136.356 40.983 135.566 40.6604 134.961 40.0322C134.356 39.4211 134.07 38.5213 134.07 37.3159ZM135.28 37.3159C135.28 38.2157 135.482 38.8948 135.869 39.3362C136.255 39.7776 136.742 40.0153 137.347 40.0153C137.936 40.0153 138.423 39.7946 138.809 39.3362C139.196 38.8778 139.398 38.1987 139.398 37.2819C139.398 36.4161 139.196 35.754 138.809 35.2956C138.423 34.8542 137.936 34.6165 137.347 34.6165C136.759 34.6165 136.272 34.8372 135.869 35.2786C135.465 35.754 135.28 36.4161 135.28 37.3159Z" fill="#113464"/>
<path d="M142.439 40.8468V33.8012H143.498V34.8708C143.767 34.3785 144.019 34.0389 144.254 33.8861C144.49 33.7333 144.742 33.6484 145.011 33.6484C145.414 33.6484 145.817 33.7843 146.221 34.0389L145.817 35.1424C145.531 34.9727 145.246 34.8878 144.943 34.8878C144.691 34.8878 144.456 34.9727 144.254 35.1255C144.053 35.2782 143.901 35.499 143.817 35.7706C143.683 36.195 143.616 36.6534 143.616 37.1627V40.8468H142.439Z" fill="#113464"/>
<path d="M147.397 40.8471V31.1191H148.573V36.6707L151.363 33.8015H152.892L150.22 36.416L153.161 40.8471H151.699L149.397 37.2479L148.556 38.0628V40.8471H147.397Z" fill="#113464"/>
<path d="M154.119 38.742L155.295 38.5552C155.362 39.0306 155.547 39.3871 155.85 39.6418C156.152 39.8964 156.572 40.0153 157.11 40.0153C157.648 40.0153 158.051 39.8964 158.32 39.6757C158.589 39.455 158.707 39.1834 158.707 38.8948C158.707 38.6231 158.589 38.4194 158.354 38.2496C158.186 38.1478 157.782 38.012 157.144 37.8422C156.27 37.6215 155.682 37.4347 155.346 37.265C155.01 37.0952 154.757 36.8745 154.589 36.6029C154.421 36.3142 154.337 36.0086 154.337 35.6521C154.337 35.3465 154.405 35.0409 154.556 34.7863C154.69 34.5146 154.892 34.2939 155.144 34.1242C155.329 33.9884 155.581 33.8695 155.9 33.7677C156.219 33.6658 156.556 33.6318 156.925 33.6318C157.48 33.6318 157.95 33.7167 158.371 33.8695C158.791 34.0223 159.093 34.243 159.278 34.5147C159.463 34.7863 159.614 35.1428 159.681 35.6012L158.522 35.754C158.471 35.3975 158.32 35.1089 158.068 34.9051C157.816 34.7014 157.463 34.5995 157.009 34.5995C156.472 34.5995 156.085 34.6844 155.85 34.8712C155.614 35.0579 155.497 35.2616 155.497 35.5163C155.497 35.6691 155.547 35.8049 155.648 35.9407C155.749 36.0766 155.9 36.1784 156.102 36.2633C156.219 36.3142 156.572 36.4161 157.144 36.5689C157.984 36.7896 158.555 36.9763 158.891 37.1291C159.228 37.265 159.48 37.4857 159.665 37.7573C159.849 38.0289 159.95 38.3685 159.95 38.7759C159.95 39.1664 159.833 39.5569 159.597 39.8964C159.362 40.236 159.043 40.5246 158.606 40.7113C158.169 40.8981 157.682 41 157.127 41C156.219 41 155.53 40.8132 155.06 40.4227C154.556 40.0492 154.253 39.489 154.119 38.742Z" fill="#113464"/>
<path d="M163.479 15.6536C162.051 15.6536 160.875 14.4652 160.875 13.0221C160.875 11.579 162.051 10.3906 163.479 10.3906C164.908 10.3906 166.084 11.579 166.084 13.0221C166.084 14.4652 164.925 15.6536 163.479 15.6536ZM163.479 10.7302C162.236 10.7302 161.211 11.7658 161.211 13.0221C161.211 14.2784 162.236 15.314 163.479 15.314C164.723 15.314 165.748 14.2784 165.748 13.0221C165.748 11.7658 164.74 10.7302 163.479 10.7302Z" fill="#113464"/>
<path d="M162.807 13.7998V12.2998H163.664C163.832 12.2998 163.967 12.3128 164.051 12.3389C164.135 12.365 164.219 12.4172 164.269 12.4824C164.32 12.5476 164.353 12.6259 164.353 12.7042C164.353 12.8085 164.303 12.8998 164.219 12.9781C164.135 13.0563 164 13.0955 163.815 13.1215C163.883 13.1476 163.933 13.1737 163.967 13.1998C164.034 13.252 164.118 13.3172 164.185 13.3955L164.521 13.7998H164.202L163.95 13.4868C163.883 13.3955 163.815 13.3302 163.765 13.2781C163.715 13.2259 163.681 13.1998 163.631 13.1737C163.597 13.1607 163.547 13.1476 163.513 13.1346C163.479 13.1346 163.429 13.1215 163.379 13.1215H163.076V13.7868H162.807V13.7998ZM163.059 12.965H163.614C163.731 12.965 163.815 12.952 163.883 12.9389C163.95 12.9259 164 12.8868 164.034 12.8476C164.068 12.8085 164.084 12.7563 164.084 12.7172C164.084 12.652 164.051 12.5868 163.983 12.5476C163.916 12.5085 163.815 12.4824 163.664 12.4824H163.059V12.965Z" fill="#113464"/>
</g>
<defs>
<clipPath id="clip0">
<rect width="166" height="41" fill="white"/>
</clipPath>
</defs>
</svg>
