<svg width="205" height="80" viewBox="0 0 205 80" fill="none" xmlns="http://www.w3.org/2000/svg">
<g clip-path="url(#clip0)">
<path d="M38.1376 71.155C20.9631 71.155 7.07189 57.2051 7.07189 39.958C7.07189 22.7954 20.9631 8.84547 38.1376 8.84547C51.4394 8.84547 62.7208 17.2154 67.1828 28.9671C62.6366 16.37 50.6817 7.4082 36.6222 7.4082C18.69 7.4082 4.12527 22.0345 4.12527 40.0425C4.12527 58.0506 18.69 72.6768 36.6222 72.6768C50.6817 72.6768 62.7208 63.7151 67.1828 51.1179C62.7208 62.7851 51.3553 71.155 38.1376 71.155Z" fill="#113464"/>
<path d="M89.9559 43.3867H77.6615C75.3917 43.2933 75.4863 41.8 75.4863 38.9067C75.4863 36.0133 75.4863 34.52 77.6615 34.4267H91.1854C91.1854 34.4267 91.1854 32 90.0505 32H75.4863C74.2568 32 68.5825 32 68.5825 38.9067C68.5825 45.8133 74.2568 45.8133 75.4863 45.8133H91.1854C91.0908 45.9067 91.0908 43.3867 89.9559 43.3867ZM37.3735 32.0933H22.9038C21.6744 32.0933 16 32.0933 16 39V45.8133C16 45.8133 22.9038 45.8133 22.9038 44.6933V39C22.9038 36.1067 22.9038 34.6133 25.079 34.52H38.6029C38.6029 34.52 38.6029 32.0933 37.3735 32.0933ZM63.6647 32.0933H49.1005C47.871 32.0933 42.1967 32.0933 42.1967 39V45.8133C42.1967 45.8133 49.1005 45.8133 49.1005 44.6933V39C49.1005 36.1067 49.1005 34.6133 51.2757 34.52H64.7996C64.7996 34.52 64.7996 32.0933 63.6647 32.0933ZM116.815 39.1867H114.45V37.9733H120.503V39.1867H118.233V45.8133H116.815V39.1867ZM124.759 37.9733V41.1467H128.163V37.9733H129.582V45.8133H128.163V42.36H124.759V45.8133H123.34V37.9733H124.759ZM133.176 37.9733H134.594V45.8133H133.176V37.9733ZM138.188 45.8133V37.9733H139.89L141.971 41.3333C142.538 42.1733 143.011 43.1067 143.295 43.9467C143.2 42.92 143.2 41.8933 143.2 40.68V37.9733H144.524V45.8133H143.011L140.931 42.36C140.458 41.52 139.89 40.4933 139.512 39.6533C139.607 40.68 139.607 41.7067 139.607 43.0133V45.8133H138.188ZM148.118 37.9733H149.537V41.6133L150.104 40.7733L152.185 37.9733H153.982L151.239 41.3333L154.171 45.8133H152.469L150.199 42.1733L149.442 43.0133V45.8133H148.024V37.9733H148.118ZM162.588 45.8133L160.034 37.9733H161.642L162.777 41.52C163.061 42.5467 163.344 43.48 163.534 44.4133C163.723 43.48 164.006 42.5467 164.385 41.52L165.52 37.88H167.033L164.29 45.72H162.588V45.8133ZM170.721 43.5733L170.059 45.8133H168.546L171.099 37.9733H172.991L175.544 45.8133H173.937L173.18 43.5733H170.721ZM172.991 42.5467L172.329 40.5867C172.14 40.12 172.045 39.56 171.951 39.0933C171.856 39.56 171.667 40.12 171.572 40.5867L170.91 42.5467H172.991ZM178.571 37.9733H179.989V44.6H183.299V45.8133H178.571V37.9733ZM187.271 37.9733V42.5467C187.271 44.1333 187.933 44.7867 188.879 44.7867C189.919 44.7867 190.581 44.04 190.581 42.5467V37.9733H192V42.4533C192 44.88 190.771 46 188.785 46C186.893 46 185.758 44.9733 185.758 42.5467V38.0667H187.271V37.9733Z" fill="#113464"/>
<path d="M200.706 42.3721H197.569V44.6977H201V45.8139H196V38H200.804V39.2093H197.569V41.1628H200.706V42.3721ZM204.922 46C204.333 46 204.039 45.6279 204.039 45.0698C204.039 44.5116 204.431 44.1395 205.02 44.1395C205.608 44.1395 206 44.5116 206 45.0698C205.902 45.5349 205.51 46 204.922 46Z" fill="#113464"/>
</g>
<defs>
<clipPath id="clip0">
<rect width="205" height="80" fill="white"/>
</clipPath>
</defs>
</svg>
