<svg width="166" height="42" viewBox="0 0 166 42" fill="none" xmlns="http://www.w3.org/2000/svg">
<g clip-path="url(#clip0)">
<path d="M0 27.2679H31.375V33.9399H6.72201L0 27.2679Z" fill="white"/>
<path d="M31.375 0.325012H0V6.8952H31.375V0.325012Z" fill="white"/>
<path d="M27.1065 13.7879H13.3264V20.3581H27.1065V13.7879Z" fill="white"/>
<path d="M7.10852 0.325012H0V27.2679L7.10852 19.9507V0.325012Z" fill="white"/>
<path d="M59.5423 17.4424V15.4889H47.29V8.61049H60.3711V6.64053H44.8525V26.9967H60.891V25.0268H47.29V17.4424H59.5423Z" fill="white"/>
<path d="M71.5996 22.4002L74.817 26.9967H77.547L71.7621 19.2482L77.1083 12.3862H74.4758L71.8433 15.8665C71.4696 16.3426 71.0633 16.9007 70.6246 17.5245L70.4134 17.82L70.2184 17.5081C69.9421 17.0649 69.5684 16.4903 69.1134 15.8172L66.7247 12.3862H63.9459L69.1784 19.396L63.5072 26.9967H66.1884L70.5271 20.857L71.5996 22.4002Z" fill="white"/>
<path d="M85.0544 25.2894C84.5995 25.2894 84.2582 25.2237 83.9982 25.076C83.7382 24.9282 83.5432 24.7148 83.4295 24.4686C83.3645 24.3208 83.267 23.9925 83.267 22.9583V13.8801H85.9969V12.3862H83.267V7.28076L81.057 8.54482V12.3862H79.0583V13.8801H81.057V22.8105C81.057 24.3044 81.1545 25.2894 81.3658 25.7326C81.5608 26.1595 81.9182 26.5042 82.4057 26.7833C82.9095 27.0623 83.6407 27.1937 84.5832 27.1937C85.1032 27.1937 85.7044 27.128 86.3544 27.0131L86.0457 25.2237C85.6394 25.273 85.3144 25.2894 85.0544 25.2894Z" fill="white"/>
<path d="M92.9194 14.7502C93.4394 14.389 94.0243 14.2084 94.6581 14.2084C95.2756 14.2084 95.9093 14.3562 96.5268 14.6681L97.2905 12.7474C96.4455 12.2877 95.6168 12.0579 94.8043 12.0579C94.2193 12.0579 93.6831 12.2221 93.1956 12.534C92.7081 12.8459 92.1394 13.5354 91.5381 14.5696L91.0832 15.3412V12.3862H89.1169V26.9967H91.3431V19.3303C91.3431 18.2304 91.5056 17.1962 91.8144 16.2605C92.0256 15.6202 92.3994 15.1113 92.9194 14.7502Z" fill="white"/>
<path d="M112.679 22.909L110.339 22.63C109.917 23.6642 109.348 24.4358 108.649 24.9282C107.902 25.4536 107.008 25.7162 105.952 25.7162C104.554 25.7162 103.368 25.2402 102.425 24.3208C101.483 23.4015 100.963 22.0554 100.849 20.3481L100.833 20.0855H112.825C112.825 19.9049 112.825 19.7571 112.825 19.6422C112.825 17.229 112.159 15.3412 110.859 14.0114C109.559 12.6981 107.837 12.0251 105.773 12.0251C103.628 12.0251 101.873 12.7146 100.54 14.0607C99.208 15.4068 98.5255 17.3439 98.5255 19.8064C98.5255 22.1867 99.1918 24.0418 100.508 25.3551C101.824 26.6684 103.644 27.325 105.919 27.325C107.723 27.325 109.218 26.9146 110.372 26.0938C111.46 25.3387 112.24 24.2716 112.679 22.909ZM101.012 18.214C101.109 16.835 101.613 15.7187 102.507 14.8979C103.4 14.0771 104.522 13.6503 105.822 13.6503C107.268 13.6503 108.454 14.1756 109.38 15.2098C109.982 15.8829 110.339 16.8843 110.469 18.214L110.502 18.4767H101.012V18.214Z" fill="white"/>
<path d="M132.585 13.7652C133.251 13.7652 133.836 13.9129 134.34 14.2084C134.844 14.5039 135.201 14.9143 135.396 15.4232C135.591 15.9157 135.672 16.6545 135.672 17.7215V26.9967H137.882V16.8679C137.882 15.2262 137.476 13.995 136.68 13.207C135.867 12.4191 134.697 12.0251 133.17 12.0251C131.204 12.0251 129.644 12.8623 128.409 14.5696L128.149 14.9307L127.986 14.5039C127.694 13.7324 127.19 13.1085 126.475 12.6817C125.76 12.2385 124.818 12.0251 123.68 12.0251C122.656 12.0251 121.73 12.2385 120.934 12.6653C120.138 13.0921 119.488 13.6667 119.016 14.3726L118.578 15.0292V12.3862H116.628V26.9967H118.854V19.4124C118.854 18.017 119 16.9171 119.309 16.162C119.618 15.3904 120.138 14.783 120.82 14.3726C121.503 13.9786 122.266 13.7652 123.063 13.7652C124.151 13.7652 124.948 14.0771 125.435 14.7173C125.906 15.3247 126.15 16.244 126.15 17.426V26.9967H128.376V18.4602C128.376 16.835 128.782 15.6366 129.579 14.8815C130.407 14.1428 131.399 13.7652 132.585 13.7652Z" fill="white"/>
<path d="M155.66 22.909L153.32 22.63C152.897 23.6642 152.328 24.4358 151.63 24.9282C150.882 25.4536 149.988 25.7162 148.932 25.7162C147.535 25.7162 146.348 25.2402 145.406 24.3208C144.463 23.4015 143.943 22.0554 143.83 20.3481L143.814 20.0855H155.806C155.806 19.9049 155.806 19.7571 155.806 19.6422C155.806 17.229 155.14 15.3412 153.84 14.0114C152.54 12.6981 150.817 12.0251 148.753 12.0251C146.608 12.0251 144.853 12.7146 143.521 14.0607C142.189 15.4068 141.506 17.3439 141.506 19.8064C141.506 22.1867 142.172 24.0418 143.489 25.3551C144.805 26.6684 146.625 27.325 148.9 27.325C150.703 27.325 152.198 26.9146 153.352 26.0938C154.441 25.3387 155.205 24.2716 155.66 22.909ZM143.992 18.214C144.09 16.835 144.593 15.7187 145.487 14.8979C146.381 14.0771 147.502 13.6503 148.802 13.6503C150.248 13.6503 151.435 14.1756 152.361 15.2098C152.962 15.8829 153.32 16.8843 153.45 18.214L153.482 18.4767H143.992V18.214Z" fill="white"/>
<path d="M104.225 41.1722V34.1267H105.283V35.1283C105.788 34.3474 106.527 33.9739 107.502 33.9739C107.922 33.9739 108.308 34.0418 108.661 34.1946C109.014 34.3474 109.283 34.5511 109.451 34.7888C109.619 35.0434 109.754 35.332 109.821 35.6716C109.871 35.8923 109.888 36.2828 109.888 36.826V41.1552H108.712V36.877C108.712 36.3846 108.661 36.0281 108.577 35.7904C108.493 35.5527 108.325 35.349 108.09 35.2132C107.855 35.0774 107.586 34.9925 107.266 34.9925C106.762 34.9925 106.325 35.1623 105.956 35.4848C105.586 35.8074 105.401 36.4186 105.401 37.3184V41.1722H104.225Z" fill="white"/>
<path d="M116.946 38.8972L118.173 39.05C117.988 39.7631 117.618 40.3233 117.097 40.7308C116.576 41.1213 115.904 41.325 115.098 41.325C114.072 41.325 113.266 41.0024 112.678 40.3743C112.073 39.7461 111.787 38.8463 111.787 37.7088C111.787 36.5204 112.089 35.6037 112.694 34.9415C113.299 34.2794 114.089 33.9569 115.047 33.9569C115.971 33.9569 116.744 34.2794 117.333 34.9246C117.921 35.5697 118.223 36.4695 118.223 37.624C118.223 37.6919 118.223 37.7937 118.223 37.9465H113.031C113.081 38.7275 113.283 39.3047 113.686 39.7291C114.072 40.1366 114.56 40.3403 115.148 40.3403C115.585 40.3403 115.955 40.2215 116.257 40.0008C116.526 39.7801 116.761 39.4066 116.946 38.8972ZM113.064 36.9788H116.963C116.913 36.3846 116.761 35.9432 116.509 35.6376C116.139 35.1792 115.652 34.9415 115.047 34.9415C114.509 34.9415 114.056 35.1283 113.686 35.4848C113.299 35.8753 113.098 36.3507 113.064 36.9788Z" fill="white"/>
<path d="M122.693 40.1026L122.862 41.1552C122.525 41.2231 122.223 41.2571 121.971 41.2571C121.534 41.2571 121.215 41.1892 120.979 41.0534C120.744 40.9175 120.576 40.7308 120.475 40.5101C120.374 40.2894 120.324 39.814 120.324 39.101V35.0434H119.45V34.1097H120.324V32.361L121.5 31.648V34.1097H122.693V35.0434H121.5V39.1689C121.5 39.5084 121.517 39.7291 121.568 39.831C121.601 39.9329 121.685 40.0008 121.769 40.0687C121.87 40.1196 122.004 40.1536 122.172 40.1536C122.307 40.1536 122.475 40.1366 122.693 40.1026Z" fill="white"/>
<path d="M125.618 41.1722L123.483 34.1266H124.71L125.819 38.1842L126.239 39.6952C126.256 39.6273 126.374 39.1349 126.592 38.2351L127.701 34.1097H128.911L129.953 38.2012L130.306 39.5424L130.709 38.1842L131.903 34.1097H133.045L130.861 41.1552H129.634L128.525 36.9449L128.256 35.7395L126.844 41.1552H125.618V41.1722Z" fill="white"/>
<path d="M134.07 37.6409C134.07 36.3337 134.423 35.366 135.146 34.7378C135.751 34.2115 136.474 33.9569 137.331 33.9569C138.289 33.9569 139.078 34.2794 139.683 34.9076C140.288 35.5358 140.591 36.4186 140.591 37.5391C140.591 38.4389 140.456 39.1519 140.187 39.6782C139.919 40.2045 139.532 40.595 139.011 40.8836C138.49 41.1722 137.936 41.308 137.331 41.308C136.356 41.308 135.566 40.9854 134.961 40.3573C134.356 39.7461 134.07 38.8463 134.07 37.6409ZM135.28 37.6409C135.28 38.5407 135.482 39.2198 135.869 39.6612C136.255 40.1026 136.742 40.3403 137.347 40.3403C137.936 40.3403 138.423 40.1196 138.809 39.6612C139.196 39.2028 139.398 38.5237 139.398 37.607C139.398 36.7411 139.196 36.079 138.809 35.6206C138.423 35.1792 137.936 34.9415 137.347 34.9415C136.759 34.9415 136.272 35.1623 135.869 35.6037C135.465 36.079 135.28 36.7411 135.28 37.6409Z" fill="white"/>
<path d="M142.439 41.1722V34.1267H143.498V35.1962C143.767 34.7039 144.019 34.3643 144.254 34.2115C144.49 34.0588 144.742 33.9739 145.011 33.9739C145.414 33.9739 145.817 34.1097 146.221 34.3643L145.817 35.4679C145.531 35.2981 145.246 35.2132 144.943 35.2132C144.691 35.2132 144.456 35.2981 144.254 35.4509C144.053 35.6037 143.901 35.8244 143.817 36.096C143.683 36.5204 143.616 36.9788 143.616 37.4882V41.1722H142.439Z" fill="white"/>
<path d="M147.397 41.1722V31.4442H148.573V36.9958L151.363 34.1266H152.892L150.22 36.7411L153.161 41.1722H151.699L149.397 37.573L148.556 38.3879V41.1722H147.397Z" fill="white"/>
<path d="M154.119 39.067L155.295 38.8803C155.362 39.3556 155.547 39.7122 155.85 39.9668C156.152 40.2215 156.572 40.3403 157.11 40.3403C157.648 40.3403 158.051 40.2215 158.32 40.0008C158.589 39.7801 158.707 39.5084 158.707 39.2198C158.707 38.9482 158.589 38.7445 158.354 38.5747C158.186 38.4728 157.782 38.337 157.144 38.1672C156.27 37.9465 155.682 37.7598 155.346 37.59C155.01 37.4202 154.757 37.1995 154.589 36.9279C154.421 36.6393 154.337 36.3337 154.337 35.9772C154.337 35.6716 154.405 35.366 154.556 35.1113C154.69 34.8397 154.892 34.619 155.144 34.4492C155.329 34.3134 155.581 34.1946 155.9 34.0927C156.219 33.9908 156.556 33.9569 156.925 33.9569C157.48 33.9569 157.95 34.0418 158.371 34.1946C158.791 34.3473 159.093 34.5681 159.278 34.8397C159.463 35.1113 159.614 35.4678 159.681 35.9262L158.522 36.079C158.471 35.7225 158.32 35.4339 158.068 35.2302C157.816 35.0264 157.463 34.9246 157.009 34.9246C156.472 34.9246 156.085 35.0095 155.85 35.1962C155.614 35.383 155.497 35.5867 155.497 35.8413C155.497 35.9941 155.547 36.13 155.648 36.2658C155.749 36.4016 155.9 36.5035 156.102 36.5883C156.219 36.6393 156.572 36.7411 157.144 36.8939C157.984 37.1146 158.555 37.3014 158.891 37.4542C159.228 37.59 159.48 37.8107 159.665 38.0823C159.849 38.354 159.95 38.6935 159.95 39.101C159.95 39.4914 159.833 39.8819 159.597 40.2215C159.362 40.561 159.043 40.8496 158.606 41.0364C158.169 41.2231 157.682 41.325 157.127 41.325C156.219 41.325 155.53 41.1382 155.06 40.7478C154.556 40.3743 154.253 39.814 154.119 39.067Z" fill="white"/>
<path d="M163.479 15.978C162.051 15.978 160.875 14.7896 160.875 13.3465C160.875 11.9035 162.051 10.7151 163.479 10.7151C164.908 10.7151 166.084 11.9035 166.084 13.3465C166.084 14.7896 164.925 15.978 163.479 15.978ZM163.479 11.0546C162.236 11.0546 161.211 12.0902 161.211 13.3465C161.211 14.6028 162.236 15.6385 163.479 15.6385C164.723 15.6385 165.748 14.6028 165.748 13.3465C165.748 12.0902 164.74 11.0546 163.479 11.0546Z" fill="white"/>
</g>
<defs>
<clipPath id="clip0">
<rect width="166" height="41" fill="white" transform="translate(0 0.325012)"/>
</clipPath>
</defs>
</svg>
