<svg width="241" height="94" viewBox="0 0 241 94" fill="none" xmlns="http://www.w3.org/2000/svg">
<g clip-path="url(#clip0)">
<path d="M44.8349 83.6068C24.6444 83.6068 8.31377 67.2157 8.31377 46.9503C8.31377 26.7843 24.6444 10.3931 44.8349 10.3931C60.4727 10.3931 73.7351 20.2278 78.9807 34.0361C73.6362 19.2344 59.5819 8.70436 43.0534 8.70436C21.9721 8.70436 4.8497 25.8902 4.8497 47.0497C4.8497 68.2091 21.9721 85.395 43.0534 85.395C59.5819 85.395 73.7351 74.8649 78.9807 60.0632C73.7351 73.7722 60.3737 83.6068 44.8349 83.6068Z" fill="white"/>
<path d="M105.753 50.9793H91.2996C88.6312 50.8697 88.7424 49.115 88.7424 45.7153C88.7424 42.3157 88.7424 40.561 91.2996 40.4513H107.198C107.198 40.4513 107.198 37.6 105.864 37.6H88.7424C87.2971 37.6 80.6262 37.6 80.6262 45.7153C80.6262 53.8307 87.2971 53.8307 88.7424 53.8307H107.198C107.087 53.9403 107.087 50.9793 105.753 50.9793ZM43.9366 37.7097H26.9259C25.4806 37.7097 18.8098 37.7097 18.8098 45.825V53.8307C18.8098 53.8307 26.9259 53.8307 26.9259 52.5147V45.825C26.9259 42.4253 26.9259 40.6707 29.4831 40.561H45.3819C45.3819 40.561 45.3819 37.7097 43.9366 37.7097ZM74.8448 37.7097H57.723C56.2776 37.7097 49.6068 37.7097 49.6068 45.825V53.8307C49.6068 53.8307 57.723 53.8307 57.723 52.5147V45.825C57.723 42.4253 57.723 40.6707 60.2802 40.561H76.179C76.179 40.561 76.179 37.7097 74.8448 37.7097ZM137.328 46.0443H134.549V44.6187H141.664V46.0443H138.996V53.8307H137.328V46.0443ZM146.668 44.6187V48.3473H150.67V44.6187H152.338V53.8307H150.67V49.773H146.668V53.8307H145V44.6187H146.668ZM156.563 44.6187H158.23V53.8307H156.563V44.6187ZM162.455 53.8307V44.6187H164.456L166.902 48.5667C167.57 49.5537 168.125 50.6503 168.459 51.6373C168.348 50.431 168.348 49.2247 168.348 47.799V44.6187H169.904V53.8307H168.125L165.679 49.773C165.124 48.786 164.456 47.5797 164.012 46.5927C164.123 47.799 164.123 49.0053 164.123 50.5407V53.8307H162.455ZM174.129 44.6187H175.797V48.8957L176.464 47.9087L178.91 44.6187H181.022L177.798 48.5667L181.245 53.8307H179.244L176.575 49.5537L175.686 50.5407V53.8307H174.018V44.6187H174.129ZM191.14 53.8307L188.138 44.6187H190.028L191.362 48.786C191.696 49.9923 192.029 51.089 192.252 52.1857C192.474 51.089 192.808 49.9923 193.252 48.786L194.586 44.509H196.365L193.141 53.721H191.14V53.8307ZM200.701 51.1987L199.923 53.8307H198.144L201.146 44.6187H203.37L206.372 53.8307H204.482L203.592 51.1987H200.701ZM203.37 49.9923L202.591 47.6893C202.369 47.141 202.258 46.483 202.147 45.9347C202.036 46.483 201.813 47.141 201.702 47.6893L200.924 49.9923H203.37ZM209.929 44.6187H211.597V52.405H215.488V53.8307H209.929V44.6187ZM220.158 44.6187V49.9923C220.158 51.8567 220.936 52.6243 222.048 52.6243C223.271 52.6243 224.049 51.747 224.049 49.9923V44.6187H225.717V49.8827C225.717 52.734 224.272 54.05 221.937 54.05C219.713 54.05 218.379 52.8437 218.379 49.9923V44.7283H220.158V44.6187Z" fill="white"/>
<path d="M235.952 49.7872H232.264V52.5198H236.298V53.8314H230.419V44.65H236.067V46.0709H232.264V48.3663H235.952V49.7872ZM240.908 54.05C240.216 54.05 239.87 53.6128 239.87 52.957C239.87 52.3012 240.332 51.864 241.023 51.864C241.715 51.864 242.176 52.3012 242.176 52.957C242.06 53.5035 241.599 54.05 240.908 54.05Z" fill="white"/>
</g>
<defs>
<clipPath id="clip0">
<rect width="241" height="94" fill="white"/>
</clipPath>
</defs>
</svg>
